# xmcd
#
# Track frame offsets:
#	150
#	17243
#	37697
#	58945
#	78118
#	96443
#	108912
#	121669
#	144228
#	160615
#	175362
#	196120
#	209519
#	228375
#	243790
#	263239
#	280159
#	298590
#	312089
#
# Disc length: 4384
#
# Revision: 3
# Processed by: cddbd v1.5.1PL0 Copyright (c) Steve Scherf et al.
# Submitted via: CDmax 1.9
# Normalized: r2:TDELIM( - )
#
DISCID=fa111e13
DTITLE=Various Artist - Greatest Hits of the 80's
DYEAR=2000
DGENRE=Pop
TTITLE0=Men Without Hats - Pop Goes the World
TTITLE1=Men Without Hats - Safety Dance
TTITLE2=Men Without Hats - I Got the Message
TTITLE3=ABBA - Fernando
TTITLE4=ABBA - Take a Chance On Me
TTITLE5=ABBA - Waterloo
TTITLE6=Blink 182 - All the Small Things
TTITLE7=U2 - With or Without You
TTITLE8=J Geils Band - Centerfold
TTITLE9=Aqua - Barbie Girl
TTITLE10=Monty Python - Every Sperm is Sacred
TTITLE11=Tom Petty - Won't Back Down
TTITLE12=Tom Petty - Free Falling
TTITLE13=Wolftones - Broad Black Brimmer of the IRA
TTITLE14=Poison - Every Rose Has Its Thorn
TTITLE15=Poison - Talk Dirty to Me
TTITLE16=REM - End of the World As We Know It
TTITLE17=Beach Boys - Sloop John B
TTITLE18=Sarah McLachlan - I Will Remember You
EXTD=
EXTT0=
EXTT1=
EXTT2=
EXTT3=
EXTT4=
EXTT5=
EXTT6=
EXTT7=
EXTT8=
EXTT9=
EXTT10=
EXTT11=
EXTT12=
EXTT13=
EXTT14=
EXTT15=
EXTT16=
EXTT17=
EXTT18=
PLAYORDER=
